<svg id="Active" xmlns="http://www.w3.org/2000/svg" viewBox="0 0 93.47 93.12"><defs><style>.cls-1{fill:#fcfefd}.cls-2{fill:#31ae7b}</style></defs><path class="cls-1" d="M1025.5 366.31c-5.94-4.29-11.85-8.62-17.86-12.83-1.32-.92-.82-1.44 0-2.18 3.53.2 6.72-1.32 10-2.12 2-.47 2.77-.21 3.34 1.78 1.25 4.36 2.75 8.65 4.14 13 .25.76.74 1.5.38 2.37z" transform="translate(-956.31 -290.62)"/><path class="cls-1" d="M69.16 75.71l.14.01-.1-.03-.04.02z"/><path class="cls-2" d="M1003.22 383.68c-14.65 0-29.3 0-43.94.05-2.18 0-3-.41-3-2.82q.13-43.79 0-87.56c0-2.24.61-2.72 2.77-2.72q43.95.12 87.9 0c2.41 0 2.79.77 2.79 2.92q-.11 43.65 0 87.32c0 2.24-.53 2.9-2.86 2.88-14.52-.12-29.09-.07-43.66-.07zm19.44-16.28h.1-.13c.36-.87-.13-1.61-.38-2.38-1.39-4.32-2.9-8.61-4.15-13-.57-2-1.35-2.25-3.33-1.78-3.32.8-6.51 2.32-10 2.12.28-.89 1.16-1.13 1.8-1.6q13.13-9.48 26.27-18.93c.75-.54 1.48-1.13 2.81-2.15-8 0-15.24-.05-22.45 0-1.77 0-2.61-.45-3.16-2.23-1.92-6.24-4-12.42-6.1-18.62-.22-.66-.14-1.5-1-1.9-2.22 6.78-4.53 13.5-6.59 20.31-.6 2-1.53 2.53-3.5 2.45-3.65-.16-7.32-.05-11-.05h-10.61c4.84 4.05 9.79 7.64 14.76 11.2 4.67 3.34 4.67 3.33 2.89 8.76-1.9 5.8-3.78 11.6-5.86 18 6.77-4.87 13.06-9.33 19.26-13.92.8-.59 1.39-1.36 2.48-1.36-.79.74-1.3 1.26 0 2.19 6.03 4.27 11.94 8.61 17.89 12.89z" transform="translate(-956.31 -290.62)"/></svg>