<svg id="Half" xmlns="http://www.w3.org/2000/svg" viewBox="0 0 93.5 93.19"><defs><style>.cls-1{fill:#dcdce6}.cls-2{fill:#31ae7b}</style></defs><path class="cls-1" d="M1113.07 353.87a2.53 2.53 0 0 1 1.76.76c5.8 4.23 11.62 8.43 17.37 12.6.75-.52.46-1 .3-1.45-1.57-4.7-3.17-9.41-4.69-14.13-.47-1.47-1.12-1.94-2.74-1.47a79.16 79.16 0 0 1-11 2.34c1.34-1 2.66-2 4-3q12.62-9 25.25-18.07c.53-.38 1.34-.73 1.14-1.44s-1.13-.48-1.75-.48c-6.65 0-13.31-.06-20 0a2.6 2.6 0 0 1-2.91-2.06c-1.57-5-3.07-10-4.84-14.86a28.1 28.1 0 0 1-1.81-11.18c.15-2.89.09-5.8 0-8.7 0-1.44.36-2.09 2-2.08q21.35.06 42.7 0c1.66 0 1.9.75 1.89 2.13v88.07c0 2.25-.56 2.94-2.89 2.92-14.73-.14-29.47-.11-44.2-.13.07-1.07.2-2.14.21-3.21q.14-13.28.21-26.56z" transform="translate(-1066.29 -290.59)"/><path class="cls-2" d="M1113.07 353.87l-.16 26.57c0 1.07-.14 2.14-.21 3.21h-43.94c-2 0-2.47-.55-2.47-2.49q.09-44.15 0-88.29c0-1.9.54-2.32 2.37-2.31q21 .11 41.94 0c1.77 0 2.7.34 2.4 2.29a7 7 0 0 0 0 2c1.56 12.07-4.08 22.59-7.26 33.64-.38 1.33-1.4 1.18-2.39 1.18h-22.25c.33 1.15 1.19 1.4 1.82 1.85 5.11 3.71 10.17 7.49 15.4 11 1.91 1.28 2.08 2.46 1.38 4.46-2 5.77-3.9 11.61-5.77 17.44-.24.75-.83 1.48-.33 2.64l6.27-4.49c3.71-2.67 7.4-5.36 11.15-8 .57-.33.98-1.42 2.05-.7z" transform="translate(-1066.29 -290.59)"/></svg>